<?xml version="1.0" encoding="UTF-8"?><svg id="Imagen" xmlns="http://www.w3.org/2000/svg" viewBox="0 0 350 75"><defs><style>.cls-1{fill:#543b1c;}.cls-2{fill:#1d1d1b;}.cls-3{fill:#fff;}.cls-4{fill:#050606;}.cls-5,.cls-6{fill:#9e9957;}.cls-6{font-family:Arial-BoldMT, Arial;font-size:15px;font-weight:700;}</style></defs><path class="cls-1" d="M106.9,4.24c-18.56,0-33.61,15.05-33.61,33.61s15.05,33.61,33.61,33.61,33.61-15.05,33.61-33.61S125.47,4.24,106.9,4.24ZM106.9,70.52c-18.16,0-32.88-14.72-32.88-32.88S88.74,4.75,106.9,4.75s32.88,14.72,32.88,32.88-14.72,32.88-32.88,32.88Z"/><path class="cls-5" d="M106.53,2.14c-19.75,0-35.77,16.01-35.77,35.77s16.01,35.77,35.77,35.77,35.77-16.01,35.77-35.77S126.28,2.14,106.53,2.14ZM106.53,72.67c-19.33,0-34.99-15.67-34.99-34.99S87.2,2.68,106.53,2.68s34.99,15.67,34.99,34.99-15.67,34.99-34.99,34.99Z"/><path class="cls-4" d="M117.46,52.13s1.81.28,3-.76c0,0-1.8-.96-1.8-1.1l-1.2,1.86Z"/><path class="cls-4" d="M119.11,49.45s5.07,1.65,5.46-1.99c0,0-3.95-.45-4.1-.72l-1.35,2.72Z"/><path class="cls-4" d="M120.46,46.39s7.69.93,8.2-3.92c0,0-2.68.96-7.43.96l-.78,2.96Z"/><path class="cls-4" d="M121.34,42.68s10.49-.62,10.62-6.12c0,0-4.3,2.23-10.28,2.85l-.34,3.27Z"/><path class="cls-4" d="M121.65,39.03s13.41-3.16,12.72-8.9c0,0-3.23,2.72-12.72,5.78v3.13Z"/><path class="cls-4" d="M121.34,35.11s14.44-3.82,13.99-11.24c0,0-7.5,6.39-14.58,8.08l.58,3.16Z"/><path class="cls-4" d="M96.02,52.17s-2.34.19-3.03-.94c0,0,.31.38,1.79-.94l1.24,1.89Z"/><path class="cls-4" d="M94.51,49.47s-5.02,1.62-5.67-2.03c0,0,.93.1,4.37-.7l1.31,2.73Z"/><path class="cls-4" d="M93,46.41s-7.25.96-8.15-3.94c0,0,2.82.81,7.32.95l.83,2.99Z"/><path class="cls-4" d="M92.1,42.73s-10.21-1.2-10.62-6.17c0,0,2.44,1.46,10.19,2.87,0,0,.12,3.16.43,3.3Z"/><path class="cls-4" d="M91.67,39.05s-14.08-3.75-12.64-8.92c0,0,2.44,2.01,13.06,5.76,0,0-.49,1.76-.43,3.16Z"/><path class="cls-4" d="M92.1,35.2s-15.27-4.81-14.03-11.33c0,0,6.15,5.62,14.65,8.06l-.62,3.27Z"/><path class="cls-2" d="M120.96,38.94c-.12-5.37-1.85-8.84-2.64-10.14-.2-.33-.62-.44-.95-.26-2.37,1.27-3.19.89-3.19.89-3.01,0-5.86-2.24-6.96-3.23-.28-.25-.7-.24-.97.02-2.26,2.16-4.65,3.46-6.87,3.32-1.46-.09-2.55-.6-3.17-.98-.34-.21-.8-.09-.99.27-2.84,5.12-2.53,9.21-2.49,9.55,0,.02,0,.03,0,.05.35,16.89,12.54,19.01,13.88,19.2.08.01.15,0,.23,0,14.61-2.69,14.12-18.67,14.12-18.67ZM106.73,56.84c-.07.01-.14.01-.22,0-1.25-.17-12.66-2.17-12.99-18.03,0-.02,0-.03,0-.05-.03-.32-.32-4.16,2.33-8.97.18-.33.61-.45.93-.25.58.36,1.6.83,2.97.92,2.07.13,4.31-1.09,6.42-3.12.25-.24.65-.25.91-.02,1.04.93,3.7,3.03,6.52,3.03,0,0,.77.36,2.99-.84.32-.17.71-.06.89.25.73,1.23,2.35,4.48,2.47,9.53,0,0,.46,15.01-13.21,17.54Z"/><path class="cls-4" d="M106.31,47.02h4.31s.12-1.6-1.34-1.6h-.74s1.5-2.13,1.43-2.56c0,0,2.13-1.05,2.13-2.29h5.59s-.1-1.62-1.07-1.65c0,0-.79.36-1.53.36s-1.46-.36-1.46-.36c0,0-.33-.17-.89-.17,0,0,.15-1.99-1.56-3.08l1.72-1.34v-1.07s.33.02.33-.29-.34-.26-.34-.26h-1.89s-.52-.96-1.81-.95c0,0-.43-.57-2.17-.57s-4.06,1.19-4.06,4.4c0,0-.26,1.87,1.38,2.94,0,0-4.18,3.28-5.83,3.28,0,0-2.46-.82-2.46-2.77s2.1-1.2,2.1-1.2c0,0,.15,1.57,1.79,1.57s.91-.37.91-.37c0,0-.84-.12-1.17-1.2s-1.1-.7-1.1-.7c0,0-.17.17-.31.15s-.29-.17-.84-.14-2.03.05-2.03,1.94,2.77,3.62,2.77,3.62c0,0,.5.47.5,1.09s-.67,1.15-.67,1.15c0,0,.38.45.38,2.05h5.69s-.12-1.63-1.1-1.63l-1.32-.05s1.7-.74,1.72-1.43c0,0,1.74.07,2.44-.53,0,0-.38,1.5.52,3.64Z"/><path class="cls-3" d="M98.88,46.62h4.44s.21-.81-.74-.81h-2.34v-.41s2.85-.98,2.91-1.91c0,0,1.44.43,3.17-.76,0,0-.71,2.62.59,3.89h3.13s.12-.81-.58-.81l-1.5-.02s.09-.91.95-1.84.6-1.63.6-1.63c0,0,.34-.74-1.13-1.68s-2.87-1.25-3.33-1.77c0,0-3.82,3.28-6.15,3.46,0,0,.46.52.46,1.44s-.62,1.36-.62,1.36c0,0,.31.72.15,1.5Z"/><path class="cls-3" d="M98.58,37.75s.09-.21.35-.21.34.21.34.21c0,0,0,.26.25.77s.63.52.63.52c0,0,.09.1-.46.04s-1.07-.64-1.11-1.01v-.32Z"/><path class="cls-3" d="M103.48,35.69s.21,1.09,3.75,2.64c0,0,3.15,1.04,2.99,3.5,0,0-.6-1.57-3.49-2.72s-3.25-3.42-3.25-3.42Z"/><path class="cls-3" d="M112.43,40.12h4.64s-.04-.68-.43-.68c0,0-.73.29-1.17.25s-1.06-.04-1.66-.37-1.3-.15-1.38.8Z"/><path class="cls-3" d="M109.79,33.17h2.77v.8l-1.77,1.44s-.11.17-.28,0-1.75-1-1.75-2.31c0,0,.14-.92.97-.92,0,0,.4.03.4.4s-.41.13-.41.13c0,0-.21.01-.21.23s.28.24.28.24Z"/><path class="cls-3" d="M108.13,33.41s-.09.64.93,1.46c0,0,2.24,1.24,2.75,2.77s.13,1.66.13,1.66c0,0-.14.01-.14-.12s-1.02-2.83-3.09-3.69-1.39-2.52-1.39-2.52c0,0,.36-.81,1.2-.86,0,0,.31-.09.14.19s-.52.35-.52,1.12Z"/><path class="cls-3" d="M105.24,33.4s.04,1.22.68,1.61c0,0,.24.44,1.86,1.08s3.12,2.26,3.12,3.93v.75s-.04.17-.16,0-.46-2.49-3.28-3.97c0,0-.4-.02-.11.22,0,0,2.05,1.74,2.11,1.88s.12.22-.16.16c0,0-1.9-1.37-2.16-1.4s-.09-.17-1.32-.55-1.9-1.23-2.09-2.88c0,0,.06-.9.32-.01s.71,1.1.71,1.1c0,0,.21.27.14-.09s-.98-1.79.35-2.88c0,0,.52-.22-.02,1.04Z"/><path class="cls-3" d="M106.73,33.63s.26,1.44,1.74,2.05,2.33,2.17,2.33,2.17c0,0,.37.41.49,1.31,0,0,.03.39-.17,0s-.32-.75-.57-1.19-1.21-1.68-2.31-2.05-2.62-1.21-2.62-2.6,1.42-1.5,1.42-1.5c0,0,.99-.09.62.25s-.93.72-.94,1.55Z"/><path class="cls-4" d="M112.7,42v-.74s.06-.48.5-.48h3.73s.5.05.5.54v.67s-.15-.44-.45-.44h-3.78s-.5.03-.5.44Z"/><path class="cls-4" d="M113.2,41.82h3.73s.4,2.37-1.86,2.49c0,0-2.38-.21-1.86-2.49Z"/><path class="cls-3" d="M115.73,42.11s.78-.01.83.7-1.18,1.11-1.53,1.17-.64-.16-.67-.32.37-.34.37-.34c0,0,.26-.24.44-.77s.55-.44.55-.44Z"/><path class="cls-4" d="M115.48,43.06s.34-.27.57-.14.06.43.06.43c0,0-.21.35-.63.31s0-.6,0-.6Z"/><text class="cls-6" transform="translate(152.49 34.04)"><tspan x="0" y="0">LEVIG</tspan></text><text class="cls-6" transform="translate(152.49 52.71)"><tspan x="0" y="0">SEGURIDAD PRIVADA</tspan></text></svg>