<?xml version="1.0" encoding="UTF-8"?><svg id="Imagen" xmlns="http://www.w3.org/2000/svg" viewBox="0 0 160 160"><defs><style>.cls-1{font-size:13.7px;}.cls-1,.cls-2{font-family:Arial-BoldMT, Arial;font-weight:700;}.cls-1,.cls-2,.cls-3{fill:#9e9957;}.cls-4{fill:#543b1c;}.cls-5{fill:#1d1d1b;}.cls-2{font-size:15.42px;}.cls-6{fill:#fff;}.cls-7{fill:#050606;}</style></defs><path class="cls-4" d="M80.8,8.62C41.44,8.62,9.54,40.52,9.54,79.87s31.9,71.26,71.26,71.26,71.26-31.9,71.26-71.26S120.15,8.62,80.8,8.62ZM80.8,149.13c-38.5,0-69.72-31.21-69.72-69.72S42.3,9.69,80.8,9.69s69.72,31.21,69.72,69.72-31.21,69.72-69.72,69.72Z"/><path class="cls-3" d="M80,4.17C38.12,4.17,4.17,38.12,4.17,80s33.95,75.83,75.83,75.83,75.83-33.95,75.83-75.83S121.88,4.17,80,4.17ZM80,153.7c-40.97,0-74.19-33.22-74.19-74.19S39.03,5.32,80,5.32s74.19,33.22,74.19,74.19-33.22,74.19-74.19,74.19Z"/><path class="cls-7" d="M103.18,110.15s3.84.58,6.37-1.6c0,0-3.82-2.04-3.82-2.33l-2.55,3.94Z"/><path class="cls-7" d="M106.68,104.47s10.74,3.5,11.57-4.23c0,0-8.38-.95-8.7-1.53l-2.87,5.76Z"/><path class="cls-7" d="M109.55,97.98s16.3,1.97,17.39-8.31c0,0-5.69,2.04-15.75,2.04l-1.65,6.27Z"/><path class="cls-7" d="M111.42,90.11s22.23-1.31,22.52-12.98c0,0-9.11,4.74-21.8,6.05l-.73,6.92Z"/><path class="cls-7" d="M112.07,82.38s28.43-6.71,26.97-18.88c0,0-6.85,5.76-26.97,12.25v6.63Z"/><path class="cls-7" d="M111.42,74.07s30.62-8.09,29.67-23.84c0,0-15.89,13.56-30.91,17.13l1.24,6.71Z"/><path class="cls-7" d="M57.73,110.22s-4.96.4-6.41-2c0,0,.66.8,3.79-2l2.62,4.01Z"/><path class="cls-7" d="M54.52,104.5s-10.64,3.43-12.03-4.3c0,0,1.97.22,9.26-1.49l2.77,5.8Z"/><path class="cls-7" d="M51.32,98.02s-15.38,2.04-17.28-8.35c0,0,5.98,1.71,15.53,2l1.75,6.34Z"/><path class="cls-7" d="M49.42,90.22s-21.65-2.55-22.52-13.08c0,0,5.18,3.1,21.61,6.09,0,0,.26,6.71.91,7Z"/><path class="cls-7" d="M48.51,82.42s-29.85-7.95-26.79-18.92c0,0,5.18,4.26,27.7,12.21,0,0-1.03,3.73-.91,6.71Z"/><path class="cls-7" d="M49.42,74.25s-32.36-10.21-29.74-24.02c0,0,13.05,11.92,31.05,17.09l-1.31,6.92Z"/><path class="cls-5" d="M110.6,82.18c-.25-11.39-3.92-18.74-5.59-21.51-.42-.69-1.31-.94-2.02-.56-5.03,2.69-6.77,1.89-6.77,1.89-6.39,0-12.42-4.75-14.76-6.84-.59-.53-1.49-.51-2.06.04-4.79,4.59-9.86,7.33-14.56,7.04-3.09-.19-5.4-1.27-6.72-2.07-.73-.45-1.69-.19-2.1.56-6.01,10.85-5.35,19.52-5.29,20.25,0,.03,0,.07,0,.1.75,35.8,26.59,40.31,29.43,40.7.16.02.33.02.49-.01,30.98-5.7,29.94-39.59,29.94-39.59ZM80.43,120.13c-.15.03-.3.03-.46.01-2.66-.36-26.84-4.6-27.54-38.23,0-.03,0-.07,0-.1-.06-.69-.68-8.83,4.95-19.02.39-.7,1.28-.95,1.97-.53,1.23.75,3.39,1.77,6.29,1.95,4.39.27,9.14-2.3,13.62-6.61.54-.52,1.37-.53,1.93-.04,2.2,1.97,7.83,6.43,13.81,6.43,0,0,1.63.75,6.34-1.77.67-.36,1.5-.13,1.89.52,1.56,2.6,4.99,9.51,5.23,20.2,0,0,.97,31.83-28.02,37.19Z"/><path class="cls-7" d="M79.54,99.31h9.13s.26-3.39-2.84-3.39h-1.57s3.17-4.52,3.03-5.43c0,0,4.52-2.22,4.52-4.85h11.85s-.22-3.43-2.26-3.5c0,0-1.68.77-3.24.77s-3.1-.77-3.1-.77c0,0-.69-.36-1.9-.36,0,0,.33-4.23-3.32-6.52l3.64-2.84v-2.26s.69.04.69-.62-.73-.55-.73-.55h-4.01s-1.09-2.04-3.83-2c0,0-.91-1.2-4.59-1.2s-8.6,2.51-8.6,9.33c0,0-.55,3.97,2.92,6.23,0,0-8.86,6.95-12.36,6.95,0,0-5.21-1.74-5.21-5.87s4.45-2.54,4.45-2.54c0,0,.33,3.33,3.79,3.33s1.93-.78,1.93-.78c0,0-1.79-.26-2.48-2.54s-2.33-1.48-2.33-1.48c0,0-.36.36-.66.33s-.62-.36-1.79-.29-4.3.11-4.3,4.12,5.87,7.67,5.87,7.67c0,0,1.06,1,1.06,2.31s-1.42,2.44-1.42,2.44c0,0,.8.95.8,4.34h12.06s-.26-3.46-2.33-3.46l-2.81-.11s3.61-1.57,3.64-3.03c0,0,3.68.15,5.18-1.13,0,0-.81,3.17,1.11,7.73Z"/><path class="cls-6" d="M63.78,98.47h9.4s.44-1.71-1.57-1.71h-4.96v-.87s6.05-2.08,6.16-4.05c0,0,3.05.91,6.72-1.62,0,0-1.51,5.56,1.26,8.26h6.64s.26-1.71-1.24-1.71l-3.17-.04s.18-1.93,2-3.9,1.28-3.46,1.28-3.46c0,0,.73-1.57-2.41-3.57s-6.09-2.66-7.07-3.75c0,0-8.09,6.96-13.05,7.33,0,0,.98,1.09.98,3.06s-1.31,2.88-1.31,2.88c0,0,.66,1.53.33,3.17Z"/><path class="cls-6" d="M63.14,79.67s.18-.46.75-.46.71.46.71.46c0,0-.02.55.53,1.64s1.33,1.09,1.33,1.09c0,0,.18.22-.97.09s-2.26-1.35-2.35-2.15v-.67Z"/><path class="cls-6" d="M73.53,75.28s.44,2.32,7.95,5.59c0,0,6.67,2.2,6.34,7.42,0,0-1.28-3.32-7.4-5.76s-6.89-7.25-6.89-7.25Z"/><path class="cls-6" d="M92.52,84.69h9.83s-.08-1.44-.92-1.44c0,0-1.56.62-2.47.53s-2.26-.08-3.51-.79-2.76-.33-2.92,1.69Z"/><path class="cls-6" d="M86.92,69.95h5.87v1.69l-3.75,3.04s-.23.36-.58,0-3.71-2.12-3.71-4.89c0,0,.3-1.95,2.05-1.95,0,0,.85.05.85.85s-.87.27-.87.27c0,0-.44.03-.44.49s.59.5.59.5Z"/><path class="cls-6" d="M83.4,70.46s-.19,1.37,1.97,3.09c0,0,4.76,2.62,5.82,5.86,1.07,3.24.27,3.51.27,3.51,0,0-.3.02-.3-.26s-2.16-5.99-6.56-7.83-2.95-5.33-2.95-5.33c0,0,.77-1.72,2.54-1.83,0,0,.66-.19.3.41s-1.09.74-1.09,2.38Z"/><path class="cls-6" d="M77.28,70.43s.08,2.6,1.45,3.42c0,0,.52.93,3.94,2.3s6.62,4.78,6.62,8.34l.03,1.59s-.11.36-.36,0-.97-5.28-6.95-8.41c0,0-.86-.05-.23.47,0,0,4.34,3.69,4.46,3.99s.25.47-.35.35c0,0-4.03-2.89-4.58-2.96s-.19-.37-2.79-1.17-4.02-2.61-4.43-6.11c0,0,.14-1.91.68-.03s1.5,2.32,1.5,2.32c0,0,.44.57.3-.19s-2.08-3.8.74-6.1c0,0,1.1-.47-.03,2.2Z"/><path class="cls-6" d="M80.43,70.93s.54,3.05,3.69,4.35,4.95,4.59,4.95,4.59c0,0,.79.87,1.04,2.79,0,0,.05.82-.36,0s-.68-1.59-1.2-2.52-2.57-3.55-4.89-4.35-5.55-2.57-5.55-5.52,3.01-3.17,3.01-3.17c0,0,2.1-.19,1.31.53s-1.97,1.52-2,3.29Z"/><path class="cls-7" d="M93.08,88.67v-1.57s.14-1.01,1.07-1.01h7.9s1.07.11,1.07,1.15v1.43s-.33-.94-.96-.94h-8.01s-1.07.07-1.07.94Z"/><path class="cls-7" d="M94.15,88.29h7.9s.85,5.02-3.95,5.27c0,0-5.04-.45-3.95-5.27Z"/><path class="cls-6" d="M99.52,88.91s1.66-.02,1.76,1.48-2.5,2.35-3.23,2.49-1.36-.34-1.41-.68.79-.72.79-.72c0,0,.55-.52.93-1.64s1.16-.93,1.16-.93Z"/><path class="cls-7" d="M98.99,90.92s.71-.56,1.2-.29.14.9.14.9c0,0-.44.74-1.34.66s0-1.27,0-1.27Z"/><text class="cls-2" transform="translate(59 41.81) rotate(-39.36)"><tspan x="0" y="0">L</tspan></text><text class="cls-2" transform="translate(66.51 35.64) rotate(-17.91)"><tspan x="0" y="0">E</tspan></text><text class="cls-2" transform="translate(76.61 32.45) rotate(3.49)"><tspan x="0" y="0">V</tspan></text><text class="cls-2" transform="translate(87.28 33.58) rotate(19.46)"><tspan x="0" y="0">I</tspan></text><text class="cls-2" transform="translate(91.97 34.67) rotate(37.59)"><tspan x="0" y="0">G</tspan></text><text class="cls-1" transform="translate(18.46 103.38) rotate(64.71)"><tspan x="0" y="0">S</tspan></text><text class="cls-1" transform="translate(22.83 112.47) rotate(56)"><tspan x="0" y="0">E</tspan></text><text class="cls-1" transform="translate(28.54 120.89) rotate(46.62)"><tspan x="0" y="0">G</tspan></text><text class="cls-1" transform="translate(36.66 129.3) rotate(36.92)"><tspan x="0" y="0">U</tspan></text><text class="cls-1" transform="translate(45.43 135.79) rotate(27.51)"><tspan x="0" y="0">R</tspan></text><text class="cls-1" transform="translate(54.93 140.5) rotate(20.95)"><tspan x="0" y="0">I</tspan></text><text class="cls-1" transform="translate(59.1 142.24) rotate(14.38)"><tspan x="0" y="0">D</tspan></text><text class="cls-1" transform="translate(69.7 144.87) rotate(4.94)"><tspan x="0" y="0">A</tspan></text><text class="cls-1" transform="translate(80.54 145.72) rotate(-4.31)"><tspan x="0" y="0">D</tspan></text><text class="cls-1" transform="translate(91.11 144.71) rotate(-10.85)"><tspan x="0" y="0"> </tspan></text><text class="cls-1" transform="translate(95.51 143.98) rotate(-17.03)"><tspan x="0" y="0">P</tspan></text><text class="cls-1" transform="translate(105.19 140.96) rotate(-26.16)"><tspan x="0" y="0">R</tspan></text><text class="cls-1" transform="translate(114.59 136.11) rotate(-32.69)"><tspan x="0" y="0">I</tspan></text><text class="cls-1" transform="translate(118.42 133.78) rotate(-38.83)"><tspan x="0" y="0">V</tspan></text><text class="cls-1" transform="translate(125.44 128.17) rotate(-46.86)"><tspan x="0" y="0">A</tspan></text><text class="cls-1" transform="translate(132.85 120.14) rotate(-56.24)"><tspan x="0" y="0">D</tspan></text><text class="cls-1" transform="translate(138.85 111.02) rotate(-65.67)"><tspan x="0" y="0">A</tspan></text></svg>